<svg xmlns="http://www.w3.org/2000/svg" height="512" viewBox="0 0 64 64" width="512"><g id="Layer_25" data-name="Layer 25"><path d="m12 9h45v34h-45" fill="#ba0009"></path><path d="m48 40h9v-31h-42.861a34 34 0 0 0 33.861 31z" fill="#ce0014"></path><path d="m24 9h33v11h-33z" fill="#036e2d"></path><path d="m24 32h33v11h-33z" fill="#515151"></path><path d="m8 7.235h4v55.765h-4z" fill="#9e9e9e"></path><path d="m10 7.235h2v55.765h-2z" fill="#c9c9c9"></path><circle cx="10" cy="5" fill="#515151" r="3"></circle><path d="m48 40h9v-8h-30.9a33.845 33.845 0 0 0 21.9 8z" fill="#595959"></path><path d="m24 20h33v12h-33z" fill="#dbdbdb"></path><path d="m24 30.072q1.008 1.007 2.1 1.928h30.9v-12h-33z" fill="#f7f7f7"></path></g></svg>